#N canvas 615 186 450 355 10;
#X obj 51 -56 dumpOSC 9000;
#X obj 51 -34 OSCroute /ds;
#X obj 51 -11 OSCroute /kaos;
#X obj 131 8 OSCroute /slider1;
#X obj 231 28 OSCroute /slider2;
#X obj 330 47 OSCroute /slider3;
#X obj 23 12 unpack f f;
#X floatatom 22 34 5 0 0 0 - - -;
#X floatatom 60 33 5 0 0 0 - - -;
#X floatatom 131 32 5 0 0 0 - - -;
#X floatatom 231 51 5 0 0 0 - - -;
#X floatatom 331 69 5 0 0 0 - - -;
#X obj 6 75 s $kaosx;
#X obj 61 74 s $kaosy;
#X obj 130 74 s $slid1;
#X obj 229 90 s $slid2;
#X obj 331 107 s $slid3;
#N canvas 105 180 498 472 threesinsynth 1;
#X obj 207 153 osc~;
#X obj 156 153 osc~;
#X obj 105 153 osc~;
#X obj 156 248 clip~ -1 1;
#X obj 140 333 cos~;
#X obj 141 308 +~;
#X obj 106 177 *~ 0.3;
#X obj 156 177 *~ 0.3;
#X obj 208 178 *~ 0.3;
#X obj 284 51 vsl 10 40 0 0.25 0 0 empty empty shape 0 -8 1 8 -260818
-1 -1 500 1;
#X obj 157 221 +~;
#X obj 188 221 * -1;
#X obj 248 49 vsl 10 40 0 1 0 0 empty empty clip 0 -8 1 8 -260818 -1
-1 1742 1;
#X obj 141 282 +~;
#X obj 156 125 *;
#X obj 207 124 *;
#X obj 156 99 t b f;
#X obj 207 99 t b f;
#X obj 95 248 *~ 0.25;
#X obj 41 15 inlet pitch;
#X obj 139 375 outlet~;
#X obj 132 16 inlet off1;
#X obj 132 45 * 4;
#X obj 206 15 inlet off2;
#X obj 205 45 * 4;
#X obj 301 11 inlet clip;
#X connect 0 0 8 0;
#X connect 1 0 7 0;
#X connect 2 0 6 0;
#X connect 3 0 13 1;
#X connect 4 0 20 0;
#X connect 5 0 4 0;
#X connect 6 0 10 0;
#X connect 6 0 18 0;
#X connect 7 0 10 0;
#X connect 8 0 10 0;
#X connect 9 0 5 1;
#X connect 10 0 3 0;
#X connect 11 0 3 1;
#X connect 12 0 11 0;
#X connect 12 0 3 2;
#X connect 13 0 5 0;
#X connect 14 0 1 0;
#X connect 15 0 0 0;
#X connect 16 0 14 0;
#X connect 16 1 14 1;
#X connect 17 0 15 0;
#X connect 17 1 15 1;
#X connect 18 0 13 0;
#X connect 19 0 15 0;
#X connect 19 0 14 0;
#X connect 19 0 2 0;
#X connect 21 0 22 0;
#X connect 22 0 16 0;
#X connect 23 0 24 0;
#X connect 24 0 17 0;
#X connect 25 0 12 0;
#X restore 69 159 pd threesinsynth;
#X obj 190 253 dac~;
#X obj 190 227 *~;
#X obj 131 52 / 150;
#X obj 60 55 / 150;
#X obj 229 70 / 150;
#X obj 331 87 / 150;
#X obj 20 53 / 150;
#X obj 234 166 r $kaosy;
#X obj 12 117 r $kaosx;
#X obj 80 136 r $slid1;
#X text 291 168 adjusts volume smoothly;
#X obj 234 205 line;
#X msg 234 185 \$1 300;
#X obj 137 137 r $slid2;
#X obj 193 136 r $slid3;
#X obj 11 138 * 1000;
#X connect 0 0 1 0;
#X connect 1 0 2 0;
#X connect 2 0 6 0;
#X connect 2 1 3 0;
#X connect 3 0 9 0;
#X connect 3 1 4 0;
#X connect 4 0 10 0;
#X connect 4 1 5 0;
#X connect 5 0 11 0;
#X connect 6 0 7 0;
#X connect 6 1 8 0;
#X connect 7 0 24 0;
#X connect 8 0 21 0;
#X connect 9 0 20 0;
#X connect 10 0 22 0;
#X connect 11 0 23 0;
#X connect 17 0 19 0;
#X connect 19 0 18 0;
#X connect 19 0 18 1;
#X connect 20 0 14 0;
#X connect 21 0 13 0;
#X connect 22 0 15 0;
#X connect 23 0 16 0;
#X connect 24 0 12 0;
#X connect 25 0 30 0;
#X connect 26 0 33 0;
#X connect 27 0 17 1;
#X connect 29 0 19 1;
#X connect 30 0 29 0;
#X connect 31 0 17 2;
#X connect 32 0 17 3;
#X connect 33 0 17 0;
